<?xml version="1.0" encoding="UTF-8" standalone="no"?>
<!-- Created with Inkscape (http://www.inkscape.org/) -->

<svg
   width="1000.0001"
   height="1000.0001"
   viewBox="0 0 264.58335 264.58335"
   version="1.1"
   id="svg1"
   xml:space="preserve"
   xmlns="http://www.w3.org/2000/svg"
   xmlns:svg="http://www.w3.org/2000/svg"><defs
     id="defs1" /><rect
     style="fill:#1f1f3c;fill-opacity:1;stroke-width:0.264583"
     id="rect1"
     width="264.58334"
     height="264.58334"
     x="0"
     y="0" /><g
     id="layer1"><path
       style="fill:#6d9ebe;fill-opacity:1"
       d="m 74.560326,210.18337 c -0.181259,-0.47236 -0.326139,-28.26441 -0.321956,-61.76012 l 0.0076,-60.901306 16.687986,-16.990401 16.687984,-16.990401 41.2639,0.159071 41.2639,0.159071 0.13809,61.038896 c 0.13341,58.97107 0.10377,61.07086 -0.87486,61.9826 -0.55712,0.51903 -7.9174,8.41769 -16.35617,17.55256 l -15.34323,16.60885 h -41.41184 c -37.26132,0 -41.444872,-0.0861 -41.741404,-0.85882 z m 80.026464,-17.0584 v -14.1166 l -23.21095,0.008 -23.21095,0.008 -13.753489,14.1089 -13.753493,14.10889 h 36.964432 36.96445 z m -48.87124,-27.28304 0.006,-10.72319 H 91.876512 78.031387 v 24.60978 24.60979 l 13.839039,-13.8866 13.839034,-13.8866 z m 68.64064,21.85358 12.77959,-13.84513 0.0128,-57.00934 0.0128,-57.009348 -6.37854,6.77891 c -3.50819,3.728401 -9.97556,10.569523 -14.37192,15.202492 l -7.99339,8.423581 -0.0151,57.270375 -0.0151,57.27038 1.59459,-1.6184 c 0.87703,-0.89012 7.34541,-7.8487 14.37419,-15.46352 z m -19.7694,-22.53227 v -10.0445 h -22.53227 -22.53226 v 10.0445 10.04451 h 22.53226 22.53227 z m 0,-29.04761 V 120.91314 H 132.3704 c -12.21901,0 -22.5594,0.13162 -22.97864,0.2925 -0.41924,0.16088 -7.29983,7.002 -15.290198,15.20249 l -14.52794,14.90999 H 117.0802 154.58679 Z M 105.72163,105.28987 V 91.051095 H 91.876512 78.031387 v 28.121485 28.12148 l 13.845125,-13.88271 13.845118,-13.88271 z m 48.86516,-0.93659 V 91.051095 h -22.53227 -22.53226 v 13.302185 13.30218 h 22.53226 22.53227 z m 14.90645,-32.033827 14.52148,-14.931019 -37.65344,0.08428 -37.65344,0.08428 L 94.05936,72.403732 79.410881,87.25047 h 37.780429 37.78044 z"
       id="path1" /></g></svg>
