<?xml version="1.0" encoding="utf-8"?>
<!-- Generator: Adobe Illustrator 28.2.0, SVG Export Plug-In . SVG Version: 6.00 Build 0)  -->
<svg version="1.1"
	 id="svg185989" xmlns:rdf="http://www.w3.org/1999/02/22-rdf-syntax-ns#" xmlns:dc="http://purl.org/dc/elements/1.1/" xmlns:svg="http://www.w3.org/2000/svg" xmlns:cc="http://creativecommons.org/ns#"
	 xmlns="http://www.w3.org/2000/svg" xmlns:xlink="http://www.w3.org/1999/xlink" x="0px" y="0px" viewBox="0 0 809.3 237.7"
	 style="enable-background:new 0 0 809.3 237.7;" xml:space="preserve">
<style type="text/css">
	.st0{fill:#FC2D49;}
	.st1{fill:#EE4E6C;}
	.st2{fill:#DF6F8F;}
	.st3{fill:#D18FB2;}
	.st4{fill:#C2B0D5;}
</style>
<g id="logo-group">
	<g id="logo-center" transform="translate(57.34768200000008 0)">
		<g>
		</g>
		<g id="slogan" transform="translate(0 0)">
			<path id="path185997" class="st0" d="M-57.3,226.8h10.6v-12.9h17.8v-8.2h-28.4V226.8z M-57.3,189.1v8.2h28.4v-8.2H-57.3z"/>
			<path id="path185999" class="st0" d="M-7.7,225.3c2.5,1.3,5.3,1.9,8.4,1.9s6-0.6,8.5-1.9c2.5-1.3,4.5-3.1,5.9-5.4
				c1.4-2.3,2.1-4.9,2.1-7.8c0-2.9-0.7-5.5-2.1-7.7s-3.4-4-5.9-5.3c-2.5-1.3-5.4-1.9-8.5-1.9c-3.2,0-6,0.6-8.5,1.9
				c-2.5,1.3-4.5,3.1-5.9,5.3c-1.4,2.3-2.1,4.9-2.1,7.7c0,2.9,0.7,5.5,2.1,7.8C-12.2,222.3-10.2,224-7.7,225.3L-7.7,225.3z
				 M5.2,217.3c-1.2,1.2-2.6,1.8-4.4,1.8c-1.8,0-3.3-0.6-4.4-1.8c-1.2-1.2-1.7-3-1.7-5.2c0-2.2,0.5-3.8,1.7-5.1
				c1.1-1.2,2.6-1.8,4.4-1.8c1.8,0,3.2,0.6,4.4,1.8c1.1,1.2,1.7,2.9,1.7,5.1C6.9,214.4,6.3,216.1,5.2,217.3z"/>
			<path id="path186001" class="st0" d="M38.2,225.3c2.5,1.3,5.3,1.9,8.4,1.9c3.1,0,6-0.6,8.5-1.9c2.5-1.3,4.5-3.1,5.9-5.4
				c1.4-2.3,2.1-4.9,2.1-7.8c0-2.9-0.7-5.5-2.1-7.7s-3.4-4-5.9-5.3c-2.5-1.3-5.4-1.9-8.5-1.9c-3.2,0-6,0.6-8.5,1.9
				c-2.5,1.3-4.5,3.1-5.9,5.3c-1.4,2.3-2.1,4.9-2.1,7.7c0,2.9,0.7,5.5,2.1,7.8C33.7,222.3,35.7,224,38.2,225.3L38.2,225.3z
				 M51.1,217.3c-1.2,1.2-2.6,1.8-4.4,1.8c-1.8,0-3.3-0.6-4.4-1.8c-1.2-1.2-1.7-3-1.7-5.2c0-2.2,0.5-3.8,1.7-5.1
				c1.1-1.2,2.6-1.8,4.4-1.8c1.8,0,3.2,0.6,4.4,1.8c1.1,1.2,1.7,2.9,1.7,5.1C52.8,214.4,52.2,216.1,51.1,217.3z"/>
			<path id="path186003" class="st0" d="M108.9,186.9H98.7v13.3c-1.9-2-4.6-3-8.1-3c-2.7,0-5.1,0.6-7.3,1.8c-2.2,1.2-3.9,3-5.2,5.3
				c-1.3,2.3-1.9,4.9-1.9,7.9c0,3,0.6,5.7,1.9,8c1.3,2.3,3,4.1,5.2,5.3c2.2,1.2,4.6,1.8,7.3,1.8c3.8,0,6.6-1.1,8.5-3.4v2.9h9.7
				L108.9,186.9z M97.1,217.3c-1.2,1.2-2.6,1.8-4.4,1.8c-1.8,0-3.3-0.6-4.4-1.8c-1.2-1.2-1.7-3-1.7-5.2c0-2.2,0.5-3.8,1.7-5.1
				c1.1-1.2,2.6-1.8,4.4-1.8c1.8,0,3.2,0.6,4.4,1.8c1.1,1.2,1.7,2.9,1.7,5.1C98.8,214.4,98.3,216.1,97.1,217.3z"/>
			<path id="path186005" class="st0" d="M152.3,198.7v-0.6c0-1.2,0.3-2.2,0.9-2.8c0.6-0.6,1.5-1,2.5-1c1,0,2,0.3,3.1,0.9l2.5-7.2
				c-0.8-0.5-1.8-0.9-3-1.1c-1.2-0.2-2.5-0.4-3.8-0.4c-3.9,0-6.8,1.1-9,3.1c-2.2,2.1-3.2,4.9-3.2,8.4v0.8h-4.2v7.6h4.2v20.4h10.2
				v-20.4h6.7v-7.6H152.3z"/>
			<path id="path186007" class="st0" d="M178.9,225.3c2.5,1.3,5.3,1.9,8.4,1.9c3.1,0,6-0.6,8.5-1.9c2.5-1.3,4.5-3.1,5.9-5.4
				c1.4-2.3,2.1-4.9,2.1-7.8c0-2.9-0.7-5.5-2.1-7.7c-1.4-2.3-3.4-4-5.9-5.3c-2.5-1.3-5.4-1.9-8.5-1.9c-3.2,0-6,0.6-8.5,1.9
				c-2.5,1.3-4.5,3.1-5.9,5.3c-1.4,2.3-2.1,4.9-2.1,7.7c0,2.9,0.7,5.5,2.1,7.8C174.4,222.3,176.4,224,178.9,225.3z M191.8,217.3
				c-1.2,1.2-2.6,1.8-4.4,1.8c-1.8,0-3.3-0.6-4.4-1.8c-1.2-1.2-1.7-3-1.7-5.2c0-2.2,0.5-3.8,1.7-5.1c1.1-1.2,2.6-1.8,4.4-1.8
				c1.8,0,3.2,0.6,4.4,1.8c1.1,1.2,1.7,2.9,1.7,5.1C193.5,214.4,192.9,216.1,191.8,217.3z"/>
			<path id="path186009" class="st0" d="M232.4,198.2c-1.7,0.6-3,1.7-4,3v-3.5h-9.7v29.1h10.2v-13.4c0-2.4,0.6-4.2,1.8-5.4
				c1.2-1.2,3-1.8,5.2-1.8c0.6,0,1.3,0.1,2.3,0.2v-9.2C236,197.2,234.1,197.5,232.4,198.2z"/>
			<path id="path186011" class="st0" d="M298.9,197.6h-9.7l-7.2,17.8l-7.2-17.8h-10.5l12.5,29.5c-0.4,0.9-1,1.5-1.6,1.9
				c-0.6,0.4-1.4,0.6-2.4,0.6c-0.9,0-1.7-0.1-2.5-0.4s-1.5-0.8-2-1.3l-3.5,7.2c1,0.8,2.2,1.5,3.8,1.9c1.6,0.5,3.1,0.7,4.7,0.7
				c3,0,5.6-0.7,7.7-2.2c2.1-1.5,3.9-4,5.4-7.6L298.9,197.6z"/>
			<path id="path186013" class="st0" d="M316.9,225.3c2.5,1.3,5.3,1.9,8.4,1.9c3.1,0,6-0.6,8.5-1.9c2.5-1.3,4.5-3.1,5.9-5.4
				c1.4-2.3,2.1-4.9,2.1-7.8c0-2.9-0.7-5.5-2.1-7.7s-3.4-4-5.9-5.3c-2.5-1.3-5.4-1.9-8.5-1.9c-3.2,0-6,0.6-8.5,1.9
				c-2.5,1.3-4.5,3.1-5.9,5.3c-1.4,2.3-2.1,4.9-2.1,7.7c0,2.9,0.7,5.5,2.1,7.8C312.4,222.3,314.4,224,316.9,225.3z M329.7,217.3
				c-1.2,1.2-2.6,1.8-4.4,1.8c-1.8,0-3.3-0.6-4.4-1.8c-1.2-1.2-1.7-3-1.7-5.2c0-2.2,0.5-3.8,1.7-5.1c1.1-1.2,2.6-1.8,4.4-1.8
				c1.8,0,3.2,0.6,4.4,1.8c1.1,1.2,1.7,2.9,1.7,5.1C331.5,214.4,330.9,216.1,329.7,217.3z"/>
			<path id="path186015" class="st0" d="M387.2,197.6H377v14c0,2.4-0.5,4.1-1.6,5.2c-1,1.1-2.3,1.7-3.9,1.7c-1.6,0-2.8-0.5-3.6-1.5
				c-0.9-1-1.2-2.6-1.2-4.8v-14.6h-10.2v16.3c0,4.5,1.1,7.8,3.3,10c2.3,2.3,5.3,3.3,9,3.3c1.7,0,3.3-0.3,4.8-0.9
				c1.5-0.6,2.8-1.5,3.9-2.7v3.1h9.7V197.6z"/>
		</g>
		<g id="title" transform="translate(0 0)">
			<path id="path186018" class="st0" d="M62.2,45.6C57,37.7,49.7,31.7,40.4,27.4C31,23.2,19.9,21,7.2,21h-64.5v31.4H4.7
				c8.1,0,14.3,1.8,18.5,5.4c4,3.6,6.2,8.9,6.2,15.3c0,6.7-2.2,11.7-6.2,15.3c-4.2,3.6-10.5,5.2-18.5,5.2h-62.1v68.3h39.9v-36.9H7.2
				c12.7,0,23.8-2,33.3-6.2c9.3-4.2,16.5-10.3,21.8-18.1c5-7.7,7.7-16.9,7.7-27.6C69.9,62.7,67.2,53.4,62.2,45.6z"/>
			<path id="path186020" class="st1" d="M144.1,52.8v109.3h38.3V52.8H144.1z M146.3,34.9c4.2,4,9.9,5.8,16.9,5.8
				c6.9,0,12.5-1.8,16.9-5.8c4.2-4,6.5-9.1,6.5-15.1c0-5.6-2.2-10.5-6.5-14.1C175.8,2,170.1,0,163.3,0c-7.1,0-12.7,2-16.9,5.8
				c-4.4,4-6.5,8.9-6.5,14.5C139.9,26.2,141.9,31,146.3,34.9z"/>
			<path id="path186022" class="st2" d="M312.7,123.8l30.6,38.3h46.4l-49.2-62.5l45.4-46.8h-45.4l-39.1,38.1V12.5h-38.3v149.6h38.3
				v-26.8L312.7,123.8z"/>
			<path id="path186024" class="st3" d="M506.9,123.8l30.6,38.3h46.4l-49.2-62.5l45.4-46.8h-45.4l-39.1,38.1V12.5h-38.3v149.6h38.3
				v-26.8L506.9,123.8z"/>
			<path id="path186026" class="st4" d="M737.6,63.5C728,55.2,714.3,51,696.1,51c-8.9,0-17.5,1.2-26.2,3.4s-15.9,5.2-22,9.3l12.9,26
				c3.6-2.8,8.3-5.2,13.7-6.9c5.2-1.6,10.7-2.6,15.9-2.6c14.7,0,22.4,5.8,23.2,17.3h-21.8c-16.5,0-28.8,3-36.7,8.7
				c-8.1,5.6-11.9,13.7-11.9,24c0,6.5,1.4,12.3,4.6,17.3c3.2,5,7.9,9.1,14.1,11.9c6,3,13.5,4.4,22,4.4c15.9,0,26.6-5.2,32.3-15.9
				v14.1H752v-60.7C752,84.5,747.1,71.8,737.6,63.5L737.6,63.5z M706.4,136.5c-3.4,2.2-7.3,3.2-11.7,3.2c-4.4,0-8.1-1-10.5-3
				c-2.6-2-3.8-4.6-3.8-8.1c0-7.3,5.4-11.1,16.7-11.1h16.5v9.5C712,131.2,709.6,134.5,706.4,136.5z"/>
		</g>
		<g>
		</g>
	</g>
</g>
</svg>
